<svg width="15" height="16" viewBox="0 0 15 16" fill="none" xmlns="http://www.w3.org/2000/svg">
<path fill-rule="evenodd" clip-rule="evenodd" d="M3.03148 12.4727C2.73388 12.0965 2.37235 11.3274 1.72894 10.3937C1.36426 9.86554 0.459922 8.87108 0.190611 8.36599C-0.0430722 7.91958 -0.0179224 7.71943 0.0376166 7.34952C0.13612 6.69143 0.810971 6.17901 1.53088 6.24817C2.07474 6.29952 2.53582 6.65895 2.95079 6.99847C3.20124 7.20281 3.50933 7.59997 3.69481 7.82422C3.86562 8.02961 3.90753 8.11449 4.08987 8.3576C4.33088 8.67931 4.40633 8.83859 4.31412 8.4844C4.23972 7.96464 4.11816 7.07706 3.94211 6.29218C3.80798 5.69697 3.77549 5.60371 3.64765 5.14682C3.51247 4.66059 3.44331 4.32002 3.31651 3.80445C3.22849 3.43978 3.07025 2.69472 3.02729 2.27556C2.96756 1.70236 2.93612 0.767624 3.30394 0.337983C3.59211 0.0016051 4.25334 -0.100042 4.66307 0.107444C5.1996 0.378851 5.50454 1.15849 5.64391 1.46972C5.89436 2.0293 6.04945 2.67586 6.18463 3.52466C6.35649 4.60505 6.67295 6.10461 6.68343 6.42003C6.70858 6.03335 6.61217 5.21913 6.67924 4.84817C6.74002 4.51179 7.02295 4.12092 7.37715 4.01508C7.67685 3.92601 8.02789 3.89353 8.33703 3.95745C8.66502 4.02451 9.01083 4.25924 9.13972 4.48035C9.51906 5.13425 9.5264 6.47032 9.54212 6.39907C9.63224 6.00505 9.61652 5.11119 9.83972 4.73918C9.98643 4.49397 10.3605 4.27287 10.5596 4.23724C10.8677 4.18275 11.246 4.16598 11.5698 4.22886C11.8307 4.2802 12.1839 4.59038 12.2792 4.73918C12.5077 5.09966 12.6376 6.11928 12.6764 6.47661C12.6921 6.62437 12.7539 6.06583 12.9834 5.70535C13.4089 5.03574 14.9147 4.9058 14.9724 6.37497C14.9986 7.0603 14.9933 7.02886 14.9933 7.48994C14.9933 8.0317 14.9807 8.3576 14.9514 8.74952C14.9189 9.16868 14.8288 10.116 14.6978 10.575C14.6077 10.8904 14.309 11.5998 14.0146 12.0253C14.0146 12.0253 12.8891 13.3352 12.7665 13.9251C12.6429 14.514 12.6837 14.5182 12.6596 14.9364C12.6355 15.3534 12.7864 15.9025 12.7864 15.9025C12.7864 15.9025 11.946 16.0115 11.4933 15.9392C11.0836 15.8732 10.5764 15.0579 10.4454 14.8085C10.2652 14.4648 9.88059 14.5308 9.73074 14.7844C9.49496 15.1858 8.98778 15.9057 8.62939 15.9507C7.92939 16.0387 6.47699 15.9832 5.34002 15.9717C5.34002 15.9717 5.53388 14.9123 5.10214 14.5486C4.78253 14.2772 4.23238 13.7271 3.90334 13.4378L3.03148 12.4727Z" fill="white"/>
</svg>
