<svg width="16" height="17" viewBox="0 0 16 17" fill="none" xmlns="http://www.w3.org/2000/svg">
<path fill-rule="evenodd" clip-rule="evenodd" d="M3.46822 13.0301C3.16681 12.6491 2.80067 11.8701 2.14903 10.9245C1.77969 10.3896 0.86379 9.38241 0.591036 8.87086C0.354365 8.41874 0.379837 8.21604 0.436086 7.8414C0.535848 7.1749 1.21933 6.65592 1.94844 6.72597C2.49926 6.77797 2.96623 7.142 3.3865 7.48586C3.64016 7.69281 3.95218 8.09505 4.14003 8.32217C4.31302 8.53018 4.35547 8.61615 4.54014 8.86237C4.78424 9.18819 4.86065 9.34951 4.76726 8.99079C4.69191 8.46438 4.56879 7.56546 4.3905 6.77054C4.25465 6.16772 4.22175 6.07327 4.09227 5.61054C3.95536 5.1181 3.88532 4.77317 3.7569 4.25101C3.66775 3.88168 3.50749 3.12709 3.46398 2.70257C3.40349 2.12204 3.37165 1.17536 3.74416 0.740227C4.03602 0.399549 4.7057 0.296603 5.12067 0.50674C5.66406 0.781618 5.9729 1.57123 6.11405 1.88643C6.3677 2.45317 6.52477 3.10799 6.66168 3.96765C6.83573 5.06185 7.15625 6.58057 7.16686 6.90002C7.19233 6.5084 7.09469 5.68377 7.16262 5.30807C7.22417 4.96739 7.51072 4.57153 7.86944 4.46433C8.17297 4.37412 8.52851 4.34122 8.84159 4.40596C9.17378 4.47389 9.52401 4.71162 9.65455 4.93555C10.0387 5.5978 10.0462 6.95096 10.0621 6.8788C10.1534 6.47975 10.1374 5.57446 10.3635 5.19769C10.5121 4.94935 10.891 4.72541 11.0926 4.68933C11.4046 4.63414 11.7878 4.61716 12.1157 4.68084C12.38 4.73284 12.7376 5.04699 12.8342 5.19769C13.0656 5.56278 13.1972 6.59543 13.2364 6.95733C13.2524 7.10697 13.315 6.5413 13.5474 6.17621C13.9783 5.49804 15.5034 5.36644 15.5618 6.85439C15.5883 7.54848 15.583 7.51664 15.583 7.98361C15.583 8.5323 15.5702 8.86237 15.5405 9.2593C15.5076 9.68382 15.4164 10.6432 15.2837 11.1081C15.1924 11.4275 14.89 12.146 14.5917 12.5769C14.5917 12.5769 13.4519 13.9036 13.3277 14.5011C13.2025 15.0975 13.2439 15.1018 13.2195 15.5252C13.1951 15.9476 13.3479 16.5037 13.3479 16.5037C13.3479 16.5037 12.4967 16.6141 12.0382 16.5409C11.6233 16.474 11.1096 15.6483 10.9769 15.3957C10.7944 15.0476 10.4049 15.1145 10.2531 15.3713C10.0143 15.7778 9.50066 16.5069 9.1377 16.5526C8.42875 16.6417 6.95778 16.5855 5.80627 16.5738C5.80627 16.5738 6.00261 15.5008 5.56536 15.1325C5.24166 14.8577 4.68448 14.3005 4.35123 14.0076L3.46822 13.0301Z" fill="white"/>
<path fill-rule="evenodd" clip-rule="evenodd" d="M3.46822 13.0301C3.16681 12.6491 2.80067 11.8701 2.14903 10.9245C1.77969 10.3896 0.86379 9.38241 0.591036 8.87086C0.354365 8.41874 0.379837 8.21604 0.436086 7.8414C0.535848 7.1749 1.21933 6.65592 1.94844 6.72597C2.49926 6.77797 2.96623 7.142 3.3865 7.48586C3.64016 7.69281 3.95218 8.09505 4.14003 8.32217C4.31302 8.53018 4.35547 8.61615 4.54014 8.86237C4.78424 9.18819 4.86065 9.34951 4.76726 8.99079C4.69191 8.46438 4.56879 7.56546 4.3905 6.77054C4.25465 6.16772 4.22175 6.07327 4.09227 5.61054C3.95536 5.1181 3.88532 4.77317 3.7569 4.25101C3.66775 3.88168 3.50749 3.12709 3.46398 2.70257C3.40348 2.12204 3.37165 1.17536 3.74416 0.740227C4.03602 0.399549 4.7057 0.296603 5.12067 0.50674C5.66406 0.781618 5.9729 1.57123 6.11405 1.88643C6.3677 2.45317 6.52477 3.10799 6.66168 3.96765C6.83573 5.06185 7.15625 6.58057 7.16686 6.90002C7.19233 6.5084 7.09469 5.68377 7.16262 5.30807C7.22417 4.96739 7.51072 4.57153 7.86944 4.46433C8.17297 4.37412 8.52851 4.34122 8.84159 4.40596C9.17378 4.47389 9.52401 4.71162 9.65455 4.93555C10.0387 5.5978 10.0462 6.95096 10.0621 6.8788C10.1534 6.47975 10.1374 5.57446 10.3635 5.19769C10.5121 4.94935 10.891 4.72541 11.0926 4.68933C11.4046 4.63414 11.7878 4.61716 12.1157 4.68084C12.38 4.73284 12.7376 5.04699 12.8342 5.19769C13.0656 5.56278 13.1972 6.59543 13.2364 6.95733C13.2524 7.10698 13.315 6.5413 13.5474 6.17621C13.9783 5.49804 15.5034 5.36644 15.5618 6.85439C15.5883 7.54848 15.583 7.51664 15.583 7.98361C15.583 8.5323 15.5702 8.86237 15.5405 9.2593C15.5076 9.68382 15.4164 10.6432 15.2837 11.1081C15.1924 11.4275 14.89 12.146 14.5917 12.5769C14.5917 12.5769 13.4519 13.9036 13.3277 14.5011C13.2025 15.0975 13.2439 15.1018 13.2195 15.5252C13.1951 15.9476 13.3479 16.5037 13.3479 16.5037C13.3479 16.5037 12.4967 16.6141 12.0382 16.5409C11.6233 16.474 11.1096 15.6483 10.9769 15.3957C10.7944 15.0476 10.4049 15.1145 10.2531 15.3713C10.0143 15.7778 9.50066 16.5069 9.1377 16.5526C8.42875 16.6417 6.95778 16.5855 5.80627 16.5738C5.80627 16.5738 6.00261 15.5008 5.56536 15.1325C5.24166 14.8577 4.68448 14.3005 4.35123 14.0076L3.46822 13.0301V13.0301Z" stroke="black" stroke-width="0.75" stroke-linecap="round" stroke-linejoin="round"/>
<path d="M12.2081 13.4063V9.73529" stroke="black" stroke-width="0.75" stroke-linecap="round"/>
<path d="M10.0688 13.4187L10.0518 9.73283" stroke="black" stroke-width="0.75" stroke-linecap="round"/>
<path d="M7.95043 9.76638L7.97272 13.4024" stroke="black" stroke-width="0.75" stroke-linecap="round"/>
</svg>
