<svg width="16" height="4" viewBox="0 0 16 4" fill="none" xmlns="http://www.w3.org/2000/svg">
<path d="M1.8058 3.63817C1.31009 3.63817 0.885198 3.46998 0.531119 3.1336C0.177039 2.77952 0 2.33692 0 1.8058C0 1.29239 0.177039 0.867495 0.531119 0.531119C0.885198 0.17704 1.31009 0 1.8058 0C2.30152 0 2.71756 0.168187 3.05393 0.504563C3.39031 0.840938 3.5585 1.27469 3.5585 1.8058C3.5585 2.33692 3.38146 2.77952 3.02738 3.1336C2.691 3.46998 2.28381 3.63817 1.8058 3.63817Z" fill="#A0A4A8"/>
<path d="M8.02666 3.63817C7.53095 3.63817 7.10606 3.46998 6.75198 3.1336C6.3979 2.77952 6.22086 2.33692 6.22086 1.8058C6.22086 1.29239 6.3979 0.867495 6.75198 0.531119C7.10606 0.17704 7.53095 0 8.02666 0C8.52238 0 8.93842 0.168187 9.27479 0.504563C9.61117 0.840938 9.77936 1.27469 9.77936 1.8058C9.77936 2.33692 9.60232 2.77952 9.24824 3.1336C8.91186 3.46998 8.50467 3.63817 8.02666 3.63817Z" fill="#A0A4A8"/>
<path d="M14.2475 3.63817C13.7518 3.63817 13.3269 3.46998 12.9728 3.1336C12.6188 2.77952 12.4417 2.33692 12.4417 1.8058C12.4417 1.29239 12.6188 0.867495 12.9728 0.531119C13.3269 0.17704 13.7518 0 14.2475 0C14.7432 0 15.1593 0.168187 15.4957 0.504563C15.832 0.840938 16.0002 1.27469 16.0002 1.8058C16.0002 2.33692 15.8232 2.77952 15.4691 3.1336C15.1327 3.46998 14.7255 3.63817 14.2475 3.63817Z" fill="#A0A4A8"/>
</svg>
