<svg width="720" height="67" viewBox="0 0 720 67" fill="none" xmlns="http://www.w3.org/2000/svg">
<path d="M0.474723 65.9376L8.13505 42.9566C8.86302 40.7727 11.2792 39.6521 13.4166 40.5071L16.9009 41.9008C18.4514 42.521 20.224 42.113 21.3473 40.8773L26.2653 35.4675C27.9416 33.6236 30.8776 33.7442 32.397 35.7194L37.3108 42.1074C38.5495 43.7177 40.7984 44.144 42.5405 43.0987L46.3191 40.8315C48.1078 39.7583 50.4209 40.2394 51.6333 41.9368L56.7436 49.0913C58.1807 51.1031 61.0802 51.3431 62.8285 49.5949L65.8351 46.5882C67.6858 44.7375 70.7857 45.1328 72.1128 47.3888L75.2203 52.6717C76.9304 55.5788 81.2494 55.1955 82.4208 52.0327L87.821 37.4522C88.6913 35.1024 91.4827 34.1218 93.6314 35.411L95.9513 36.8029C97.8909 37.9667 100.409 37.2924 101.507 35.3152L106.925 25.5636C108.216 23.2399 111.372 22.7979 113.251 24.6775L115.578 27.0041C117.509 28.9351 120.764 28.4068 121.986 25.9643L125.521 18.8934C127.065 15.8056 131.532 15.9914 132.814 19.1967L137.378 30.6068C138.412 33.1903 141.702 33.9562 143.77 32.0948L147.838 28.4329C148.877 27.4986 150.327 27.1733 151.665 27.5746L158.277 29.5584C159.081 29.7994 159.788 30.2866 160.299 30.9512L166.88 39.5064C168.301 41.3541 170.995 41.6003 172.728 40.0408L177.319 35.9087C178.625 34.7328 180.547 34.5474 182.054 35.4518L186.581 38.1684C188.273 39.1831 190.451 38.814 191.714 37.2989L197.329 30.561C198.591 29.0459 200.769 28.6769 202.461 29.6916L206.988 32.4081C208.496 33.3125 210.417 33.1272 211.723 31.9512L216.314 27.8191C218.047 26.2597 220.741 26.5059 222.162 28.3536L228.743 36.9087C229.254 37.5734 229.962 38.0606 230.765 38.3015L237.377 40.2853C238.715 40.6867 240.165 40.3613 241.204 39.427L246.095 35.0246C247.908 33.3927 250.747 33.7494 252.101 35.7792L256.829 42.8724C258.23 44.9731 261.202 45.2674 262.988 43.4821L266.71 39.7598C268.272 38.1973 270.806 38.1973 272.368 39.7598L275.791 43.1825C277.67 45.062 280.826 44.62 282.117 42.2964L287.535 32.5448C288.633 30.5675 291.151 29.8933 293.091 31.057L295.575 32.5478C297.668 33.8036 300.388 32.9089 301.327 30.6558L306.781 17.5656C307.988 14.6696 311.907 14.2259 313.73 16.7789L316.806 21.0846C318.243 23.0964 321.142 23.3364 322.891 21.5882L326.214 18.2651C327.962 16.5169 330.861 16.7568 332.298 18.7687L337.409 25.9231C338.621 27.6205 340.934 28.1016 342.723 27.0284L346.502 24.7612C348.244 23.716 350.493 24.1423 351.731 25.7526L355.755 30.9838C357.534 33.2957 361.109 32.9889 362.467 30.4078L367.592 20.6703C368.662 18.6371 371.221 17.9208 373.191 19.1029L376.196 20.906C378.067 22.0282 380.491 21.4454 381.648 19.5957L387.795 9.76015C388.821 8.1182 390.876 7.44675 392.673 8.16586L396.759 9.80002C398.422 10.4652 400.324 9.94422 401.416 8.52466L405.958 2.61994C407.687 0.372497 411.14 0.586831 412.578 3.0308L417.233 10.9447C418.469 13.0449 421.278 13.5625 423.181 12.0404L426.781 9.16058C428.373 7.88702 430.668 8.01413 432.109 9.4557L436.895 14.2418C438.4 15.7465 440.819 15.8101 442.401 14.3866L446.039 11.1125C447.888 9.44872 450.79 9.85683 452.108 11.9658L457.656 20.8426C458.749 22.5917 460.993 23.2231 462.838 22.3006L466.637 20.4013C468.35 19.5448 470.43 20.0224 471.597 21.5404L475.784 26.9828C477.562 29.2947 481.137 28.988 482.496 26.4069L487.197 17.4753C488.411 15.167 491.475 14.6199 493.414 16.3649L496.917 19.5183C498.439 20.8877 500.749 20.8877 502.27 19.5183L506.384 15.8163C508.116 14.2568 510.81 14.503 512.231 16.3507L517.588 23.3141C518.756 24.8321 520.835 25.3097 522.548 24.4532L526.347 22.5538C528.192 21.6314 530.436 22.2627 531.529 24.0119L537.077 32.8886C538.395 34.9976 541.298 35.4057 543.146 33.742L546.784 30.4679C548.366 29.0444 550.785 29.108 552.29 30.6127L557.076 35.3988C558.518 36.8403 560.813 36.9674 562.405 35.6939L566.004 32.8141C567.907 31.292 570.717 31.8096 571.952 33.9097L576.607 41.8237C578.045 44.2676 581.498 44.482 583.227 42.2345L587.769 36.3298C588.861 34.9102 590.764 34.3893 592.427 35.0544L596.512 36.6886C598.31 37.4077 600.364 36.7363 601.391 35.0943L607.538 25.2588C608.694 23.409 611.119 22.8262 612.989 23.9485L615.994 25.7516C617.964 26.9337 620.523 26.2174 621.593 24.1842L626.718 14.4467C628.077 11.8655 631.652 11.5588 633.43 13.8707L637.454 19.1019C638.693 20.7122 640.942 21.1385 642.684 20.0932L646.462 17.8261C648.251 16.7528 650.564 17.2339 651.777 18.9313L656.887 26.0858C658.324 28.0976 661.224 28.3376 662.972 26.5894L666.295 23.2663C668.043 21.5181 670.943 21.758 672.38 23.7699L675.455 28.0755C677.279 30.6285 681.197 30.1849 682.404 27.2888L687.858 14.1986C688.797 11.9456 691.517 11.0509 693.61 12.3066L696.095 13.7974C698.034 14.9612 700.552 14.287 701.651 12.3097L707.068 2.55807C708.359 0.234433 711.515 -0.207591 713.395 1.672L719.646 7.92377" stroke="#007EFF"/>
</svg>
