<svg width="16" height="17" viewBox="0 0 16 17" fill="none" xmlns="http://www.w3.org/2000/svg">
<path fill-rule="evenodd" clip-rule="evenodd" d="M3.46812 13.0298C3.16672 12.6488 2.80058 11.8698 2.14896 10.9242C1.77964 10.3893 0.863764 9.38218 0.591018 8.87065C0.354355 8.41855 0.379825 8.21585 0.436072 7.84122C0.535832 7.17474 1.21929 6.65578 1.94838 6.72583C2.49918 6.77783 2.96614 7.14185 3.3864 7.4857C3.64004 7.69264 3.95206 8.09487 4.1399 8.32198C4.31289 8.52999 4.35534 8.61595 4.54 8.86216C4.78409 9.18797 4.8605 9.34929 4.76711 8.99058C4.69176 8.46419 4.56865 7.56529 4.39036 6.7704C4.25452 6.1676 4.22162 6.07315 4.09214 5.61043C3.95524 5.118 3.8852 4.77309 3.75678 4.25095C3.66764 3.88163 3.50739 3.12706 3.46387 2.70256C3.40338 2.12204 3.37154 1.17539 3.74405 0.740269C4.0359 0.399602 4.70556 0.296658 5.12051 0.50679C5.66388 0.781659 5.97271 1.57124 6.11386 1.88644C6.36751 2.45316 6.52457 3.10796 6.66148 3.96759C6.83553 5.06176 7.15603 6.58043 7.16664 6.89988C7.19211 6.50827 7.09448 5.68366 7.1624 5.30797C7.22395 4.9673 7.51049 4.57145 7.8692 4.46426C8.17273 4.37406 8.52825 4.34116 8.84132 4.40589C9.1735 4.47381 9.52372 4.71154 9.65426 4.93547C10.0384 5.5977 10.0459 6.95082 10.0618 6.87865C10.1531 6.47961 10.1371 5.57435 10.3632 5.1976C10.5118 4.94926 10.8906 4.72534 11.0923 4.68925C11.4043 4.63407 11.7874 4.61709 12.1153 4.68076C12.3796 4.73276 12.7372 5.0469 12.8338 5.1976C13.0652 5.56268 13.1968 6.59529 13.236 6.95718C13.252 7.10682 13.3146 6.54117 13.547 6.17609C13.9779 5.49794 15.5029 5.36634 15.5613 6.85424C15.5878 7.54831 15.5825 7.51647 15.5825 7.98343C15.5825 8.53211 15.5698 8.86216 15.5401 9.25908C15.5072 9.68359 15.4159 10.643 15.2832 11.1078C15.192 11.4273 14.8895 12.1457 14.5913 12.5766C14.5913 12.5766 13.4515 13.9032 13.3273 14.5007C13.2021 15.0971 13.2435 15.1014 13.2191 15.5248C13.1947 15.9472 13.3475 16.5033 13.3475 16.5033C13.3475 16.5033 12.4963 16.6137 12.0379 16.5404C11.6229 16.4736 11.1093 15.6479 10.9766 15.3953C10.7941 15.0472 10.4046 15.1141 10.2528 15.3709C10.014 15.7774 9.50037 16.5065 9.13742 16.5521C8.42849 16.6413 6.95757 16.585 5.80609 16.5733C5.80609 16.5733 6.00243 15.5004 5.56519 15.1321C5.2415 14.8573 4.68433 14.3001 4.35109 14.0072L3.46812 13.0298V13.0298Z" stroke="black" stroke-width="0.75" stroke-linecap="round" stroke-linejoin="round"/>
</svg>
