<svg width="13" height="16" viewBox="0 0 13 16" fill="none" xmlns="http://www.w3.org/2000/svg">
<path d="M11.2364 3.46665L11.9357 2.37888L12.7127 1.29112C12.3242 1.36882 12.0134 1.44652 11.9357 1.52421C11.6249 1.67961 11.3141 1.44651 11.1587 1.21342C11.081 0.980323 10.3817 1.21342 9.83784 1.52421C9.29395 1.835 8.98317 2.45658 8.82778 2.37888C8.59469 2.22348 7.35154 2.06809 7.04075 2.06809C6.72996 2.06809 5.56448 1.36881 5.25369 1.05802C4.9429 0.747233 3.93283 0.902633 3.62204 0.747238C3.38895 0.591843 2.92277 0.514141 2.68968 0.281049C2.53429 0.0479562 2.06809 0.125649 1.7573 0.203346C1.44651 0.281044 0.591836 0.747233 0.514139 1.05802C0.514139 1.13572 0.436451 1.21342 0.281056 1.29112L0.980328 1.9127L1.13573 3.00046L1.7573 3.54434C1.7573 3.54434 1.7573 4.16592 1.6796 4.7875C1.6019 5.40908 1.05803 6.26375 0.669543 6.65224C0.514148 6.80763 0.358748 7.11842 0.203354 7.58461C0.824933 7.74 1.29113 7.9731 1.21343 8.1285C1.13574 8.51698 0.125651 8.36158 0.125651 9.13855C0.125651 9.21625 0.125651 9.21626 0.125651 9.29396L6.03066 12.4019L5.95296 13.3342C5.95296 13.3342 7.27384 14.2666 8.59469 15.199C9.13858 13.7227 9.91555 12.0911 10.1486 11.7803C10.4594 11.2364 10.8479 11.3141 11.1587 11.0033C11.4695 10.6148 11.5472 11.1587 12.0134 10.4594C12.0134 10.3817 12.0911 10.304 12.1688 10.304L11.3918 9.06086L11.2364 3.46665Z" fill="#E8E8E8" stroke="white" stroke-width="0.25" stroke-miterlimit="10"/>
</svg>
