<svg width="23" height="17" viewBox="0 0 23 17" fill="none" xmlns="http://www.w3.org/2000/svg">
<path d="M22.0267 2.42893C21.7099 2.50812 21.7891 2.19135 21.3931 1.95378C21.0763 1.7954 20.2844 2.58732 19.6509 3.06246C19.3342 3.14165 19.0966 3.30003 18.859 3.37922C18.5422 3.45841 18.2255 3.5376 18.0671 3.37922C17.6711 2.90408 18.7006 1.7954 17.9879 1.47864C17.2752 1.16187 17.9087 0.211583 17.3544 0.132392C16.8 0.0532009 15.9289 1.08268 15.9289 1.47864C15.9289 1.95379 14.4243 1.7954 14.4243 2.27055C14.4243 2.7457 13.0781 2.19135 12.7613 2.74569C12.5237 3.22084 11.811 2.34974 11.415 2.34974C10.9399 2.34974 10.6231 1.71621 10.0688 1.8746C9.51447 2.03298 9.19769 1.71621 8.72255 1.63702C8.2474 1.55783 7.93063 2.58731 7.45549 2.42893C6.98034 2.27055 6.66359 3.37923 6.50521 4.01275C6.34683 4.64628 4.20867 4.64628 4.20867 5.359C4.28787 6.07172 2.94161 6.3093 2.86242 5.83415C2.70404 5.35901 1.91213 5.67576 1.75375 5.51738C1.59537 5.359 0.961843 5.67576 1.04103 6.30929C1.12022 6.94282 0.486682 7.33878 0.407491 7.57636C0.3283 7.81393 -0.0676402 8.60584 0.249124 8.9226C0.565888 9.23937 -0.0676402 9.95209 0.249124 10.5856C0.565888 11.2983 0.407496 12.1694 0.486687 12.407C0.645069 12.6446 1.83293 12.5654 2.07051 13.1989C2.30808 13.9117 0.486682 15.0995 0.407491 15.4955C0.407491 15.6539 0.565869 15.8122 0.724251 16.0498C1.43697 16.0498 2.38727 16.2082 3.17918 16.2874C4.20866 16.4458 9.51446 15.6539 9.59365 15.4955C9.67284 15.3371 9.43526 14.1492 9.43526 13.9117C9.51445 13.6741 10.148 13.1197 10.7023 13.1197C11.2567 13.1989 11.811 13.2781 11.811 12.803C11.811 12.407 13.3948 11.8527 13.474 12.2486C13.6324 12.6446 14.1867 12.4862 14.2659 11.5359C14.3451 10.5856 14.1867 9.8729 14.8203 9.8729C15.3746 9.79371 15.9289 9.47695 15.9289 9.23938C15.8497 8.92261 15.2162 8.36827 15.3746 8.20989C15.533 8.05151 16.9584 8.68503 17.196 8.28907C17.3544 7.89312 17.1168 7.41798 17.3544 7.02202C17.5919 6.62607 18.1463 6.2301 18.1463 5.91334C18.0671 5.51738 18.2255 5.27981 17.8295 4.96305C17.5127 4.64628 17.6711 4.17113 18.0671 4.17113C18.1463 4.17113 18.2255 4.09195 18.3047 4.09195C18.6214 4.01276 18.9382 3.93356 19.0966 3.77518C19.6509 3.30003 20.8388 2.98326 21.2347 3.14165C21.5515 3.30003 22.3434 3.14165 22.8186 2.66651C22.581 2.42893 22.185 2.34974 22.0267 2.42893Z" fill="#E8E8E8" stroke="white" stroke-width="0.25" stroke-miterlimit="10"/>
</svg>
