<svg width="19" height="19" viewBox="0 0 19 19" fill="none" xmlns="http://www.w3.org/2000/svg">
<path d="M13.9675 1.51836C14.1983 1.28763 14.4722 1.10462 14.7736 0.97975C15.0751 0.854883 15.3982 0.790616 15.7245 0.790616C16.0508 0.790616 16.3739 0.854883 16.6753 0.97975C16.9768 1.10462 17.2507 1.28763 17.4814 1.51836C17.7121 1.74908 17.8951 2.02299 18.02 2.32444C18.1449 2.62589 18.2091 2.94899 18.2091 3.27528C18.2091 3.60157 18.1449 3.92467 18.02 4.22612C17.8951 4.52758 17.7121 4.80148 17.4814 5.03221L5.62216 16.8914L0.790616 18.2091L2.10831 13.3776L13.9675 1.51836Z" stroke="#A0A4A8" stroke-width="1.5" stroke-linecap="round" stroke-linejoin="round"/>
</svg>
