<svg width="28" height="17" viewBox="0 0 28 17" fill="none" xmlns="http://www.w3.org/2000/svg">
<path d="M27.5644 9.54452C26.7715 8.9102 25.5029 8.19659 25.3443 8.51375C25.1858 8.9102 24.3929 8.98949 24.0757 8.59305C23.7585 8.1966 23.5207 7.80014 22.5692 8.1173C21.6177 8.51375 20.9834 8.98949 20.9041 9.38594C20.8248 9.78239 20.1905 10.1788 20.1112 9.62382C20.0319 9.14808 19.3183 8.91021 18.7633 8.83092C18.2876 8.67234 17.4154 8.9895 17.4154 8.43447C17.3361 7.95873 16.6225 7.32441 16.5432 6.76938C16.4639 6.21435 16.7018 5.42146 16.1467 5.26288C15.671 5.1043 15.3538 4.31141 14.8781 4.31141C14.4024 4.31141 11.9444 4.3114 11.7065 4.15282C11.3893 3.99424 9.72428 4.62857 9.64499 4.31141C9.5657 3.99425 8.37634 2.8049 7.74202 2.24987C7.66273 2.48774 7.50417 2.7256 7.2663 2.96347C6.07696 3.83566 4.96688 3.67708 5.36333 2.64632C5.75978 1.61555 5.75979 0.346921 5.20476 0.346921C4.57045 0.346921 5.04617 2.48774 4.57043 2.64632C4.17398 2.8049 4.01541 1.06052 4.33257 0.188332L0.288795 1.2984L0.13023 8.35517C0.526678 8.51375 0.923122 8.59305 1.24028 8.59305C1.8746 8.67234 1.79529 8.1966 1.79529 7.80015C1.79529 7.48299 2.42963 6.92796 2.90537 6.92796C3.38111 7.00725 3.3018 6.29365 3.46038 6.29365C3.61896 6.29365 4.01542 6.21435 4.09471 5.97648C4.25329 5.73861 4.9669 6.05578 5.20476 6.29365C5.44263 6.53152 5.99766 6.61081 6.39411 6.6901C6.79056 6.76939 6.94912 8.11731 6.94912 8.35517C6.94912 8.67233 9.01065 8.59305 9.32781 8.67234C9.64497 8.75163 9.64499 9.30665 9.96214 9.7031C10.2793 10.0995 10.5172 10.6546 10.6757 11.051C10.8343 11.3682 12.0237 11.8439 12.2615 12.2404C12.5787 12.6368 13.4509 13.1126 14.0852 13.3504C14.7195 13.5883 15.3538 14.4605 15.7503 14.4605C16.1467 14.3812 17.1775 14.9362 17.1775 14.9362L17.3361 15.967C17.4154 15.967 17.4154 15.967 17.4947 15.967C18.0497 15.8084 18.3668 16.4427 18.8426 16.4427C19.0012 16.4427 19.239 16.6013 19.4769 16.7599C19.4769 15.8084 19.7941 15.412 20.1112 15.0948C20.5077 14.7776 19.7941 14.2226 19.9527 13.6676C20.0319 13.1126 18.8426 12.8747 19.0012 12.4782C19.0805 12.0818 20.1112 12.0818 20.5077 11.9232C20.9041 11.7646 20.587 11.051 21.0627 11.051C21.4591 11.051 21.697 10.6546 21.8556 10.1788C22.0142 9.78239 22.7278 10.1788 23.0449 9.86169C23.4414 9.54453 23.9964 9.38595 24.155 9.62382C24.2343 9.78239 23.8378 10.5753 23.6 10.9717C24.2343 10.9717 25.2651 10.8132 25.4236 10.6546C25.6615 10.4167 26.613 11.051 26.9301 10.4167C27.168 9.7031 28.278 10.0995 27.5644 9.54452Z" fill="#E8E8E8" stroke="white" stroke-width="0.25" stroke-miterlimit="10"/>
</svg>
