<svg width="10" height="5" viewBox="0 0 10 5" fill="none" xmlns="http://www.w3.org/2000/svg">
<path d="M9.20337 1.32393C9.35967 0.933183 9.90673 0.855037 9.51598 0.307989C9.43783 0.386139 9.35967 0.386136 9.20337 0.464286C8.50002 0.620585 7.09335 -0.00461294 6.23371 0.151686C5.37407 0.307986 3.73292 0.307989 3.34218 0.698737C2.95143 1.08949 1.93551 1.24578 2.4044 1.63653C2.8733 2.02728 2.4044 2.18358 2.71699 2.65248C3.02959 3.12138 3.1859 3.27767 3.65479 3.19952C4.12369 3.12137 4.43628 3.35583 3.96738 3.82472C4.74888 3.74657 5.53035 3.74657 5.68665 3.82472C5.84295 3.98102 7.01519 4.84067 7.24964 4.76252C7.40593 4.68437 8.18745 4.76251 8.73449 4.84066C8.65634 4.68437 8.65632 4.52807 8.81262 4.37177C9.04707 4.21547 9.43781 4.21547 9.20337 3.82472C8.96892 3.51212 8.89077 3.43398 8.89077 2.96508C8.89077 2.57433 8.73447 2.33988 8.81262 2.02728C8.65632 1.87098 8.96892 1.79283 9.20337 1.32393ZM0.919571 2.49618C0.0599295 2.73062 -0.018234 3.90287 0.294363 3.90287C0.685109 3.90287 1.70105 3.12137 1.9355 2.80878C2.2481 2.49618 1.77921 2.26173 0.919571 2.49618ZM1.62291 1.79283C1.77921 1.48023 0.294358 1.63653 0.606955 1.94913C0.919552 2.10543 1.46661 2.10543 1.62291 1.79283Z" fill="#E8E8E8" stroke="white" stroke-width="0.25" stroke-miterlimit="10"/>
</svg>
