<svg width="17" height="27" viewBox="0 0 17 27" fill="none" xmlns="http://www.w3.org/2000/svg">
<path d="M16.5897 7.00978C16.4346 6.62207 16.1244 4.76108 16.202 3.98567C16.2795 3.21025 16.0469 1.19417 16.0469 0.263674V0.186139C15.2715 0.496305 14.496 0.961547 14.4185 1.03909C14.2634 1.34925 13.6431 0.961554 13.3329 1.34926C12.9452 1.65943 12.7126 1.4268 12.4024 1.27171C12.0923 1.19417 11.9372 1.58188 11.8596 1.89205C11.7821 2.20221 11.1618 2.04712 10.9291 1.96958C10.6965 1.89204 9.99865 2.12468 9.61094 2.12468C9.22323 2.12468 9.53339 1.81451 9.06814 1.65942C8.68043 1.50434 8.37028 1.8145 8.13766 1.8145C7.98257 1.8145 7.59486 1.73697 7.2847 1.73697C7.2847 1.96959 7.28469 2.12467 7.20715 2.27976C6.89698 3.05517 7.82748 4.83863 7.90502 5.61404C8.21518 5.92421 8.6029 6.23436 8.83552 6.54452C9.22323 7.08731 8.83553 7.00977 8.91307 8.09535C8.99061 9.18093 8.44782 8.7157 8.06011 9.10341C7.6724 9.49111 7.98256 10.2665 7.90502 10.4991C7.82748 10.7318 6.58682 8.87078 6.50928 8.63815C6.43174 8.32799 6.97452 7.2424 6.81944 6.62207C6.66436 6.00174 5.88894 6.38946 5.57877 6.467C5.26861 6.54454 4.64828 5.69159 4.4932 5.69159C4.33811 5.69159 0.150871 7.24242 0.150871 7.24242L0.461032 8.40554H0.383509L0.616124 8.94831C0.616124 8.94831 2.01188 9.02586 2.63221 9.41357C3.25254 9.80128 4.26057 9.87881 4.41565 10.0339C4.64828 10.189 4.41566 11.6623 4.4932 12.4377C4.57074 13.2131 3.64024 13.3682 4.10549 13.8334C4.4932 14.2211 4.33812 14.919 4.57074 14.9966C4.88091 15.0741 4.10549 15.9271 3.71778 16.1597C3.40762 16.3923 3.71778 17.0902 3.33008 17.7105C3.09745 18.0982 2.32204 18.7961 1.77925 19.2613C1.77925 19.2613 1.85679 19.2613 1.85679 19.3389C2.01188 19.5715 2.39957 21.9753 2.78728 22.2079C3.17498 22.4405 2.94237 24.8443 2.94237 25.077C2.94237 25.3096 3.09746 26.8604 3.09746 26.8604C3.09746 26.8604 3.71779 26.7828 4.26058 26.7828C4.26058 26.4727 4.33811 26.1625 4.33811 26.0074C4.41565 25.232 3.87287 25.8524 3.71778 25.3871C3.5627 24.9219 4.88091 24.0689 6.12157 23.6036C7.43978 23.1384 7.90503 22.8282 8.06011 22.363C8.21519 21.8978 8.0601 20.5795 8.21518 20.1143C8.37026 19.5715 8.13764 19.3389 7.90502 18.1757C7.74993 17.0126 7.36223 16.8576 7.1296 16.1597C6.97452 15.5394 6.97453 14.9966 7.36224 14.9966C7.74995 14.9966 7.74994 14.7639 8.06011 14.1436C8.37028 13.5233 8.75797 13.7559 9.3783 13.2906C9.99863 12.8254 9.99864 12.2826 11.0067 11.5072C12.0147 10.7318 13.1003 10.7318 14.0308 10.189C15.0388 9.72373 16.7448 7.47503 16.5897 7.00978Z" fill="#E8E8E8" stroke="white" stroke-width="0.25" stroke-miterlimit="10"/>
</svg>
