<svg width="13" height="9" viewBox="0 0 13 9" fill="none" xmlns="http://www.w3.org/2000/svg">
<path d="M10.4687 6.89311C10.7967 7.13911 10.7967 7.38512 11.1247 7.38512C11.3707 7.38512 12.0267 7.46711 12.2727 7.71311C12.6007 7.63111 12.8467 7.63112 12.8467 7.63112C12.8467 7.63112 12.6007 5.90911 12.5187 5.4171C12.4367 4.9251 10.8787 4.35109 10.8787 4.35109L10.6327 2.95708C10.6327 2.95708 8.82866 3.20308 8.50066 3.12108C8.17265 2.95708 7.43463 3.28508 7.10663 2.87508C6.77863 2.38307 6.20463 3.20307 5.63062 2.79307C5.05661 2.38307 3.3346 2.95707 3.2526 2.62907C3.17059 2.30107 3.9906 1.56306 4.4006 1.64507C4.48261 1.64507 4.72861 1.64507 4.89262 1.64507C5.13862 1.31706 5.63061 0.497058 5.46661 0.251056C5.30261 0.00505344 4.7286 0.169057 4.3186 0.49706C3.90859 0.825063 3.17058 0.333054 3.08858 0.825058C2.92458 1.23506 2.76058 1.72707 2.26857 1.72707C1.85857 1.72707 2.18659 2.46507 1.69458 2.62907C1.28458 2.79307 0.218542 2.79307 0.136541 3.20307C0.0545404 3.61308 1.28457 3.94108 1.12056 4.43308C1.03856 5.00709 1.77658 5.5811 1.28458 5.9091C0.874571 6.2371 0.546552 6.64711 0.628553 7.63112C0.956557 7.79512 1.28456 8.04112 1.36656 7.71311C1.61256 7.22111 3.08858 7.71312 3.08858 7.22112C3.08858 6.72911 4.6466 6.89311 4.6466 6.40111C4.6466 5.90911 5.54862 4.9251 6.12263 5.0071C6.69664 5.0891 6.04062 6.07311 6.77863 6.40111C7.51664 6.72911 6.45063 7.87712 6.86064 8.36912C7.02464 8.53312 7.27064 8.53312 7.68065 8.36912C7.92665 8.28712 8.25466 8.20513 8.58266 8.04112C9.32067 7.54912 10.2227 6.7291 10.4687 6.89311Z" fill="#E8E8E8" stroke="white" stroke-width="0.25" stroke-miterlimit="10"/>
</svg>
