<svg width="6" height="5" viewBox="0 0 6 5" fill="none" xmlns="http://www.w3.org/2000/svg">
<path d="M5.45875 3.86927C5.45875 3.45427 4.46273 3.12226 4.46273 2.62426C4.46273 2.12625 3.79871 1.71126 3.88171 1.29625C3.96471 1.04725 3.63272 0.632244 3.38372 0.30024C2.96871 0.217239 2.38769 0.134228 1.88968 0.134228C1.30867 0.217229 0.810665 0.383239 0.229656 0.46624C0.561661 0.964246 0.312652 1.13024 0.561656 1.79425C0.893661 2.54126 1.55767 2.12626 1.80668 2.37527C1.88968 2.45827 1.9727 2.70727 2.1387 2.95627C2.2217 2.95627 2.22169 2.95627 2.30469 2.95627C2.55369 3.03927 2.71969 3.12227 2.71969 3.28827C3.0517 3.37127 3.3837 3.62027 3.54971 3.70327C3.79871 3.78628 3.88171 3.53728 4.29671 3.95228C4.62872 4.36729 4.71174 4.45029 4.62874 4.8653C5.04375 4.8653 5.37574 4.78229 5.70775 4.61629C5.62474 4.45029 5.45875 4.11828 5.45875 3.86927Z" fill="#E8E8E8" stroke="white" stroke-width="0.25" stroke-miterlimit="10"/>
</svg>
