<svg width="18" height="18" viewBox="0 0 18 18" fill="none" xmlns="http://www.w3.org/2000/svg">
<path d="M16.5175 14.4361C16.4377 13.4778 15.8786 13.4778 15.9585 12.7591C15.9585 12.1202 16.0384 11.4813 15.7988 11.4015C15.5592 11.3216 15.7189 10.7626 16.1182 10.2036C16.5175 9.64454 15.3995 9.56469 15.2398 8.84595C15.1599 8.52651 15.4793 7.48833 15.9585 6.3703C14.6009 5.49185 13.2433 4.45368 13.2433 4.45368L13.3231 3.49537L7.2538 0.300984C7.2538 1.01972 6.93436 1.57873 6.4552 1.81831C5.97604 2.05789 7.09408 2.69676 6.53507 2.77662C5.97605 2.85648 4.77817 2.29747 3.89971 2.61691C3.34069 2.85648 3.42055 1.41901 3.89971 0.141256L2.54209 0.22112C2.54209 0.22112 2.14279 0.300982 1.82336 0.460701L2.06293 1.17943C2.06293 1.17943 2.38238 1.81831 2.30252 2.21761C2.30252 2.37733 1.98307 2.45718 1.66363 2.53704C1.74349 3.0162 1.74349 3.4155 1.74349 3.4155L2.14279 3.65508C2.14279 3.65508 1.26433 5.41199 0.865032 5.57171C0.785172 5.65156 0.465739 5.81128 0.1463 5.971C0.385879 7.1689 0.705327 8.60637 1.10463 9.00567C1.90322 9.7244 1.74348 10.6029 1.98306 11.082C2.14278 11.5612 2.86152 12.1202 2.38236 12.3598C2.06292 12.5195 1.7435 12.1202 1.50392 11.7209C1.50392 11.8007 1.42406 11.8806 1.42406 11.9605C1.42406 11.9605 1.42405 12.0403 1.34419 12.0403C1.74349 12.3598 2.30251 12.6792 2.54209 12.6792C2.94139 12.6792 3.58026 13.1584 4.05941 13.2382C4.45871 13.3181 5.97605 13.8771 6.13577 14.1167C6.13577 14.1965 6.21563 14.1965 6.21563 14.2764C6.53507 14.2764 7.01422 14.2764 7.33366 14.2764C7.41352 14.1965 7.49337 14.1965 7.57323 14.1965C8.13225 14.1965 8.77114 16.2729 8.69129 17.4708C9.01072 17.5506 9.48986 17.5506 9.56972 17.5506C9.8093 17.5506 10.1287 17.2312 10.528 17.3909C10.9273 17.5506 10.6878 17.8701 11.0871 17.8701C11.4864 17.8701 12.2051 17.6305 12.4447 17.7104C12.6842 17.7902 13.3231 17.8701 13.403 17.6305C13.4829 17.3111 13.5627 16.9118 13.962 16.9916C14.2814 17.0715 14.521 17.3909 14.9203 17.0715C15.3196 16.752 15.8786 17.0715 16.0384 16.752C16.1182 16.5923 16.9967 16.193 17.7154 15.8736C17.5557 14.9951 16.5175 15.3944 16.5175 14.4361Z" fill="#E8E8E8" stroke="white" stroke-width="0.25" stroke-miterlimit="10"/>
</svg>
