<svg width="20" height="34" viewBox="0 0 20 34" fill="none" xmlns="http://www.w3.org/2000/svg">
<path d="M19.549 7.8891C19.314 7.65415 18.8441 7.10594 19.2357 7.10594C19.6273 7.10594 19.7839 6.00951 19.314 5.77456C18.8441 5.53962 19.314 4.59983 18.9224 4.36488C18.5309 4.12993 18.7658 3.42509 18.8441 2.87688C18.9224 2.32866 17.4344 1.93708 16.573 1.5455C15.7898 1.15392 15.3982 0.605712 14.6934 0.214132C13.9886 -0.177447 13.8319 0.84066 13.8319 1.38887C13.8319 2.0154 13.2054 2.09372 12.8138 1.70214C12.3439 1.31056 11.874 1.70214 11.1692 1.38887C10.4643 1.07561 10.7776 2.09372 10.7776 2.4853C10.7776 2.95519 9.99445 2.95519 9.60287 2.95519C9.13297 2.95519 8.42813 3.34677 8.42813 3.81667C8.42813 4.28656 7.72328 4.67814 7.95823 4.91309C8.19318 5.22635 7.87992 5.53962 7.56665 5.77456C7.25339 6.00951 6.94012 6.71436 6.70517 6.9493C6.47023 7.18425 6.86181 7.57584 6.39192 7.81078C5.92202 8.12405 5.45213 7.88909 5.21718 8.12404C4.98223 8.35899 5.21717 8.9072 5.13886 9.53373C5.06054 10.2386 4.51234 10.9434 4.12076 11.5699C3.65087 12.1965 4.27739 12.3531 4.51234 12.3531C4.74729 12.4314 4.74729 12.823 4.51234 13.2146C4.27739 13.6845 3.72919 13.3712 3.49425 13.2929C3.18098 13.2146 2.39782 13.6062 1.92793 14.311C1.45803 15.0942 1.61466 15.4857 1.77129 15.8773C1.92792 16.2689 1.37971 16.7388 1.77129 17.4436C2.16287 18.2268 1.61465 18.3051 1.69297 18.9316C1.77128 19.5582 2.63277 19.4799 2.71109 20.0281C2.7894 20.6546 2.39781 20.8895 2.08455 20.8895C1.77128 20.8895 1.8496 21.5161 2.16287 21.6727C2.47613 21.8293 2.39782 22.8474 2.24119 23.1607C2.08456 23.474 1.14475 23.1607 1.22307 23.5523C1.30138 23.9439 0.98813 24.4921 0.98813 24.8053C0.98813 25.1186 0.909814 26.0584 0.596551 25.8235C0.43992 25.7451 0.283283 25.7451 0.126652 25.7451C0.126652 25.8234 0.126652 25.8235 0.126652 25.9018C0.126652 26.45 0.283278 27.0765 0.831489 27.4681C1.3797 27.8597 0.909814 28.4862 1.37971 29.1127C1.8496 29.6609 1.69297 30.1308 2.16287 30.5224C2.63276 30.914 2.71107 31.1489 2.47613 31.6972C2.24118 32.2454 2.86771 32.0887 2.94603 32.402C2.94603 32.7153 2.78939 33.4201 2.94603 33.7334C3.10266 34.0466 3.41592 33.7334 4.19908 33.7334C4.98224 33.7334 4.74728 33.2635 4.74728 32.7936C4.74728 32.3237 5.13886 32.5586 5.21718 32.2454C5.29549 31.9321 6.00035 31.9321 6.54856 32.0887C7.09677 32.3237 7.3317 31.9321 7.48833 31.3839C7.56665 30.8357 7.87992 31.5405 8.03655 31.6188C8.19318 31.6971 8.66308 30.7574 8.89803 30.1308C9.13298 29.5043 8.89802 29.5826 8.34981 30.2091C7.8016 30.8357 8.11486 29.5826 8.34981 29.1127C8.58476 28.6428 8.50646 27.2331 8.58477 26.8416C8.66309 26.5283 8.8197 26.0584 9.44623 25.9018C10.1511 25.7451 11.0126 24.962 10.8559 24.5704C10.6993 24.2571 11.7957 23.6306 11.7957 23.3173C11.7957 23.0041 10.6993 21.9077 10.3077 21.6727C9.91613 21.4378 9.13297 21.5944 9.21129 21.3594C9.2896 21.1245 9.13296 20.1064 9.05465 19.5582C8.97633 19.01 9.60287 18.5401 9.60287 17.9919C9.60287 17.522 9.60287 16.9738 9.99445 16.8171C10.4643 16.6605 10.1511 16.2689 10.7776 16.1123C11.3258 15.9556 11.2475 15.1725 11.874 14.8592C12.5005 14.6243 12.5789 14.3893 13.362 13.9977C14.1452 13.6062 15.5549 12.6664 15.7898 12.1965C16.0248 11.7266 14.9284 11.1784 15.6332 10.7085C16.338 10.1603 15.7115 9.61205 16.2597 9.45542C16.7296 9.29879 16.9645 8.98552 17.2778 8.67226C17.5911 8.28068 18.061 8.67225 18.9224 8.51562C19.2357 8.43731 19.549 8.51562 19.7839 8.51562C19.7056 8.28067 19.6273 7.96741 19.549 7.8891ZM11.6391 28.3296C10.7776 28.3296 10.3077 30.1308 10.5427 30.3658C10.7776 30.6007 12.5789 28.3296 11.6391 28.3296Z" fill="#E8E8E8" stroke="white" stroke-width="0.25" stroke-miterlimit="10"/>
</svg>
