<svg width="9" height="10" viewBox="0 0 9 10" fill="none" xmlns="http://www.w3.org/2000/svg">
<path d="M8.16257 1.89781L8.00472 0.792909L7.29443 0.161533C7.05766 0.319377 6.82089 0.477218 6.74196 0.713983C6.74196 0.950748 6.03168 0.950753 5.79491 0.792909C5.47923 0.635066 4.76893 0.950753 4.61108 1.18752C4.45324 1.42428 3.9797 0.792914 3.66401 0.871836C3.34832 0.871836 2.48018 1.18752 2.48018 1.18752C2.48018 1.18752 2.32235 2.13458 2.32235 2.52918C2.32235 2.92379 2.87479 3.00271 2.87479 3.3184C2.87479 3.63409 2.48018 3.94977 2.40125 4.10762C2.40125 4.34438 2.08557 4.42331 1.76989 4.58115C1.4542 4.66007 1.45421 5.21252 1.13852 5.44928C0.822833 5.68605 0.901755 6.15959 0.743911 6.5542C0.586067 6.9488 0.428203 7.50125 0.428203 7.89586C0.428203 8.29047 0.349291 8.764 0.191447 9.07969C0.664979 9.15861 0.743901 9.07969 0.980667 8.92185C1.29635 8.764 2.63803 8.44831 2.63803 8.44831L3.97969 8.3694C4.29538 7.58018 4.68999 6.79095 5.16352 6.63311C5.7949 6.47527 6.58413 6.55419 7.29443 6.71204C7.45227 6.23851 7.61012 5.8439 7.76796 5.76498C8.16257 5.37037 8.71502 4.58115 8.79394 3.87085C8.87286 3.23948 8.87287 2.60811 8.87287 2.60811L8.16257 1.89781Z" fill="#E8E8E8" stroke="white" stroke-width="0.25" stroke-miterlimit="10"/>
</svg>
